<svg xmlns="http://www.w3.org/2000/svg" width="1200" height="800" viewBox="0 0 1200 800">
  <defs>
    <linearGradient id="bg" x1="0" y1="0" x2="1" y2="1">
      <stop offset="0" stop-color="#07101E"/>
      <stop offset="1" stop-color="#14263A"/>
    </linearGradient>
    <linearGradient id="accent" x1="0" y1="0" x2="0" y2="1">
      <stop offset="0" stop-color="#22C55E" stop-opacity="0.22"/>
      <stop offset="1" stop-color="#38BDF8" stop-opacity="0.10"/>
    </linearGradient>
    <filter id="soft" x="-20%" y="-20%" width="140%" height="140%">
      <feGaussianBlur stdDeviation="20"/>
    </filter>
  </defs>

  <rect width="1200" height="800" fill="url(#bg)"/>

  <circle cx="310" cy="220" r="170" fill="#22C55E" opacity="0.16" filter="url(#soft)"/>
  <circle cx="900" cy="170" r="150" fill="#F472B6" opacity="0.14" filter="url(#soft)"/>

  <rect x="190" y="170" width="820" height="470" rx="54" fill="#0B1220" opacity="0.58" stroke="#2B3A55" stroke-width="2"/>
  <rect x="230" y="210" width="740" height="390" rx="46" fill="url(#accent)"/>

  <g fill="#E6F4FF" opacity="0.20">
    <g transform="translate(270,250)">
      <rect width="56" height="34" rx="10"/>
      <rect x="84" width="56" height="34" rx="10"/>
      <rect x="168" width="56" height="34" rx="10"/>
      <rect x="252" width="56" height="34" rx="10"/>
      <rect x="336" width="56" height="34" rx="10"/>
      <rect x="420" width="56" height="34" rx="10"/>
    </g>
    <g transform="translate(270,310)">
      <rect width="56" height="34" rx="10"/>
      <rect x="84" width="56" height="34" rx="10"/>
      <rect x="168" width="56" height="34" rx="10"/>
      <rect x="252" width="56" height="34" rx="10"/>
      <rect x="336" width="56" height="34" rx="10"/>
      <rect x="420" width="56" height="34" rx="10"/>
    </g>
  </g>

  <rect x="0" y="670" width="1200" height="130" fill="#070B12" opacity="0.92"/>
  <g opacity="0.85">
    <rect x="70" y="70" width="310" height="54" rx="27" fill="#0B0F18" opacity="0.55" stroke="#2B3A55" stroke-width="1"/>
    <text x="110" y="105" font-family="ui-sans-serif, system-ui, -apple-system" font-size="18" fill="#E6F4FF" opacity="0.92">Creek Harbour</text>
  </g>
</svg>
