<svg xmlns="http://www.w3.org/2000/svg" width="1200" height="800" viewBox="0 0 1200 800">
  <defs>
    <linearGradient id="bg" x1="0" y1="0" x2="1" y2="1">
      <stop offset="0" stop-color="#081426"/>
      <stop offset="1" stop-color="#102A43"/>
    </linearGradient>
    <linearGradient id="sun" x1="0" y1="0" x2="1" y2="1">
      <stop offset="0" stop-color="#FDBA74" stop-opacity="0.35"/>
      <stop offset="1" stop-color="#F472B6" stop-opacity="0.18"/>
    </linearGradient>
    <linearGradient id="panel" x1="0" y1="0" x2="0" y2="1">
      <stop offset="0" stop-color="#182A3F"/>
      <stop offset="1" stop-color="#0E1726"/>
    </linearGradient>
    <filter id="blur" x="-20%" y="-20%" width="140%" height="140%">
      <feGaussianBlur stdDeviation="22"/>
    </filter>
  </defs>

  <rect width="1200" height="800" fill="url(#bg)"/>

  <circle cx="980" cy="150" r="190" fill="url(#sun)" filter="url(#blur)"/>
  <circle cx="240" cy="220" r="150" fill="#38BDF8" opacity="0.18" filter="url(#blur)"/>

  <rect x="180" y="170" width="840" height="520" rx="46" fill="url(#panel)" stroke="#2B3A55" stroke-width="2"/>
  <rect x="220" y="210" width="760" height="440" rx="40" fill="#0B1220" opacity="0.45"/>

  <g opacity="0.9">
    <rect x="250" y="240" width="340" height="380" rx="28" fill="#7EE1FF" opacity="0.10"/>
    <rect x="610" y="240" width="340" height="380" rx="28" fill="#B8FFF1" opacity="0.08"/>
  </g>

  <g fill="#D5E6FF" opacity="0.22">
    <g transform="translate(280,270)">
      <rect width="36" height="26" rx="6"/>
      <rect x="58" width="36" height="26" rx="6"/>
      <rect x="116" width="36" height="26" rx="6"/>
      <rect x="174" width="36" height="26" rx="6"/>
    </g>
    <g transform="translate(280,320)">
      <rect width="36" height="26" rx="6"/>
      <rect x="58" width="36" height="26" rx="6"/>
      <rect x="116" width="36" height="26" rx="6"/>
      <rect x="174" width="36" height="26" rx="6"/>
    </g>
    <g transform="translate(280,370)">
      <rect width="36" height="26" rx="6"/>
      <rect x="58" width="36" height="26" rx="6"/>
      <rect x="116" width="36" height="26" rx="6"/>
      <rect x="174" width="36" height="26" rx="6"/>
    </g>
  </g>

  <rect x="0" y="670" width="1200" height="130" fill="#070B12" opacity="0.92"/>
  <g opacity="0.85">
    <rect x="70" y="70" width="260" height="54" rx="27" fill="#0B0F18" opacity="0.55" stroke="#2B3A55" stroke-width="1"/>
    <text x="110" y="105" font-family="ui-sans-serif, system-ui, -apple-system" font-size="18" fill="#E6F4FF" opacity="0.92">Downtown</text>
  </g>
</svg>
