<svg xmlns="http://www.w3.org/2000/svg" width="1200" height="800" viewBox="0 0 1200 800">
  <defs>
    <linearGradient id="sky" x1="0" y1="0" x2="0" y2="1">
      <stop offset="0" stop-color="#0B1220"/>
      <stop offset="1" stop-color="#0F2A3A"/>
    </linearGradient>
    <linearGradient id="glass" x1="0" y1="0" x2="1" y2="1">
      <stop offset="0" stop-color="#7EE1FF" stop-opacity="0.22"/>
      <stop offset="1" stop-color="#B8FFF1" stop-opacity="0.10"/>
    </linearGradient>
    <linearGradient id="tower" x1="0" y1="0" x2="0" y2="1">
      <stop offset="0" stop-color="#18263D"/>
      <stop offset="1" stop-color="#0E1626"/>
    </linearGradient>
    <filter id="soft" x="-20%" y="-20%" width="140%" height="140%">
      <feGaussianBlur stdDeviation="18"/>
    </filter>
  </defs>

  <rect width="1200" height="800" fill="url(#sky)"/>

  <circle cx="180" cy="160" r="120" fill="#5B9DFF" opacity="0.25" filter="url(#soft)"/>
  <circle cx="1020" cy="220" r="160" fill="#A855F7" opacity="0.18" filter="url(#soft)"/>

  <rect x="120" y="170" width="280" height="520" rx="34" fill="url(#tower)" stroke="#2B3A55" stroke-width="2"/>
  <rect x="460" y="120" width="330" height="570" rx="38" fill="url(#tower)" stroke="#2B3A55" stroke-width="2"/>
  <rect x="835" y="220" width="210" height="470" rx="30" fill="url(#tower)" stroke="#2B3A55" stroke-width="2"/>

  <g opacity="0.9">
    <rect x="150" y="210" width="220" height="440" rx="24" fill="url(#glass)"/>
    <rect x="495" y="170" width="260" height="480" rx="26" fill="url(#glass)"/>
    <rect x="860" y="260" width="160" height="390" rx="22" fill="url(#glass)"/>
  </g>

  <g fill="#D5E6FF" opacity="0.28">
    <g transform="translate(170,240)">
      <rect width="28" height="22" rx="4"/>
      <rect x="44" width="28" height="22" rx="4"/>
      <rect x="88" width="28" height="22" rx="4"/>
      <rect x="132" width="28" height="22" rx="4"/>
      <rect x="176" width="28" height="22" rx="4"/>
    </g>
    <g transform="translate(170,280)">
      <rect width="28" height="22" rx="4"/>
      <rect x="44" width="28" height="22" rx="4"/>
      <rect x="88" width="28" height="22" rx="4"/>
      <rect x="132" width="28" height="22" rx="4"/>
      <rect x="176" width="28" height="22" rx="4"/>
    </g>
    <g transform="translate(170,320)">
      <rect width="28" height="22" rx="4"/>
      <rect x="44" width="28" height="22" rx="4"/>
      <rect x="88" width="28" height="22" rx="4"/>
      <rect x="132" width="28" height="22" rx="4"/>
      <rect x="176" width="28" height="22" rx="4"/>
    </g>
  </g>

  <rect x="0" y="680" width="1200" height="120" fill="#0B0F18" opacity="0.9"/>
  <path d="M0 690 C 260 650, 440 740, 720 700 C 930 670, 1060 710, 1200 680 L1200 800 L0 800 Z" fill="#0A1220" opacity="0.9"/>

  <g opacity="0.9">
    <rect x="70" y="70" width="210" height="54" rx="27" fill="#0B0F18" opacity="0.55" stroke="#2B3A55" stroke-width="1"/>
    <text x="105" y="105" font-family="ui-sans-serif, system-ui, -apple-system" font-size="18" fill="#E6F4FF" opacity="0.92">Dubai Marina</text>
  </g>
</svg>
