<svg xmlns="http://www.w3.org/2000/svg" width="1200" height="800" viewBox="0 0 1200 800">
  <defs>
    <linearGradient id="bg" x1="0" y1="0" x2="0" y2="1">
      <stop offset="0" stop-color="#07111F"/>
      <stop offset="1" stop-color="#0B2234"/>
    </linearGradient>
    <linearGradient id="glow" x1="0" y1="0" x2="1" y2="1">
      <stop offset="0" stop-color="#A855F7" stop-opacity="0.18"/>
      <stop offset="1" stop-color="#38BDF8" stop-opacity="0.14"/>
    </linearGradient>
    <filter id="soft" x="-20%" y="-20%" width="140%" height="140%">
      <feGaussianBlur stdDeviation="20"/>
    </filter>
  </defs>

  <rect width="1200" height="800" fill="url(#bg)"/>

  <circle cx="260" cy="210" r="160" fill="#A855F7" opacity="0.18" filter="url(#soft)"/>
  <circle cx="980" cy="170" r="170" fill="#38BDF8" opacity="0.18" filter="url(#soft)"/>

  <rect x="260" y="160" width="680" height="520" rx="56" fill="#0B1220" opacity="0.60" stroke="#2B3A55" stroke-width="2"/>
  <rect x="300" y="200" width="600" height="440" rx="48" fill="url(#glow)"/>

  <g fill="#E6F4FF" opacity="0.22">
    <g transform="translate(340,240)">
      <rect width="70" height="40" rx="12"/>
      <rect x="100" width="70" height="40" rx="12"/>
      <rect x="200" width="70" height="40" rx="12"/>
      <rect x="300" width="70" height="40" rx="12"/>
      <rect x="400" width="70" height="40" rx="12"/>
    </g>
    <g transform="translate(340,310)">
      <rect width="70" height="40" rx="12"/>
      <rect x="100" width="70" height="40" rx="12"/>
      <rect x="200" width="70" height="40" rx="12"/>
      <rect x="300" width="70" height="40" rx="12"/>
      <rect x="400" width="70" height="40" rx="12"/>
    </g>
  </g>

  <rect x="0" y="670" width="1200" height="130" fill="#070B12" opacity="0.92"/>
  <g opacity="0.85">
    <rect x="70" y="70" width="260" height="54" rx="27" fill="#0B0F18" opacity="0.55" stroke="#2B3A55" stroke-width="1"/>
    <text x="110" y="105" font-family="ui-sans-serif, system-ui, -apple-system" font-size="18" fill="#E6F4FF" opacity="0.92">Austin</text>
  </g>
</svg>
